<?xml version="1.0" standalone="no"?>
<!DOCTYPE svg PUBLIC "-//W3C//DTD SVG 20010904//EN"
 "http://www.w3.org/TR/2001/REC-SVG-20010904/DTD/svg10.dtd">
<svg version="1.0" xmlns="http://www.w3.org/2000/svg"
 width="332.000000pt" height="330.000000pt" viewBox="0 0 332.000000 330.000000"
 preserveAspectRatio="xMidYMid meet">

<g transform="translate(0.000000,330.000000) scale(0.100000,-0.100000)"
fill="#000000" stroke="none">
<path d="M1560 3189 c-394 -21 -786 -214 -1057 -520 -169 -192 -288 -426 -351
-694 -24 -100 -26 -129 -27 -320 0 -183 3 -224 23 -319 64 -296 195 -551 392
-759 246 -259 570 -425 938 -478 119 -17 381 -6 500 20 302 67 559 201 766
401 344 332 505 751 474 1233 -30 474 -289 922 -683 1182 -294 193 -602 274
-975 254z m100 -58 l0 -28 -87 -7 c-193 -16 -358 -60 -529 -140 -477 -226
-785 -677 -829 -1213 l-7 -83 -30 0 -30 0 7 88 c62 771 694 1383 1458 1410 45
2 47 1 47 -27z m295 2 c539 -101 1000 -515 1168 -1049 29 -93 53 -220 63 -341
l7 -83 -31 0 -30 0 -7 83 c-31 365 -172 674 -425 927 -254 255 -556 394 -927
426 l-83 7 0 30 0 30 93 -8 c50 -3 128 -13 172 -22z m-28 -93 c436 -78 815
-365 1018 -770 102 -202 146 -397 146 -645 -1 -375 -143 -709 -420 -985 -209
-208 -438 -333 -727 -396 -113 -25 -427 -25 -541 0 -288 61 -529 192 -733 396
-205 205 -342 458 -395 732 -23 114 -30 342 -16 451 76 565 500 1050 1045
1193 183 48 435 58 623 24z m-1713 -1452 c3 -18 8 -67 11 -109 20 -264 150
-565 342 -789 255 -297 595 -465 1026 -505 66 -6 67 -7 67 -36 0 -35 7 -34
-160 -14 -348 41 -656 190 -899 436 -270 273 -412 587 -445 982 l-5 67 29 0
c25 0 30 -4 34 -32z m2972 -60 c-30 -401 -231 -790 -542 -1047 -237 -196 -503
-310 -804 -346 -159 -19 -150 -20 -150 14 0 32 -6 30 160 47 85 8 266 55 366
94 510 202 868 690 910 1243 l7 87 30 0 30 0 -7 -92z"/>
<path d="M1472 2942 c-55 -9 -50 -84 7 -95 17 -4 31 -11 31 -17 0 -13 -23 -13
-36 0 -8 8 -14 6 -23 -4 -9 -11 -8 -17 4 -30 34 -33 95 -12 95 32 0 34 -16 52
-46 52 -26 0 -40 15 -24 25 6 4 18 1 26 -6 18 -15 40 2 31 24 -6 16 -32 24
-65 19z"/>
<path d="M1686 2919 c-3 -17 -6 -53 -6 -80 0 -37 4 -49 15 -49 9 0 18 12 22
30 4 23 11 30 29 30 20 0 24 -5 24 -29 0 -17 4 -32 9 -35 17 -11 29 20 32 84
2 52 0 66 -13 68 -10 2 -17 -7 -21 -26 -5 -25 -10 -29 -32 -24 -21 4 -26 9
-23 31 5 40 -28 41 -36 0z"/>
<path d="M1258 2894 c-6 -6 30 -134 41 -146 3 -4 12 -4 19 1 11 7 9 22 -8 80
-20 63 -35 83 -52 65z"/>
<path d="M1085 2825 c-16 -50 -14 -48 -31 -30 -11 11 -20 13 -27 6 -16 -16 43
-141 66 -141 15 0 18 5 13 25 -6 23 -5 24 21 14 30 -11 58 -5 47 12 -3 6 -22
18 -41 26 -26 10 -33 18 -28 31 17 45 18 72 1 72 -9 0 -19 -7 -21 -15z"/>
<path d="M2141 2824 c-51 -21 -56 -102 -9 -137 74 -55 166 42 108 115 -24 31
-59 39 -99 22z m67 -36 c7 -7 12 -21 12 -33 0 -45 -60 -63 -80 -24 -23 41 35
90 68 57z"/>
<path d="M2358 2655 c-40 -56 -48 -85 -24 -85 19 0 96 109 89 126 -9 25 -28
14 -65 -41z"/>
<path d="M833 2680 c-18 -11 -33 -24 -33 -30 0 -18 82 -120 96 -120 17 0 18
31 2 49 -11 11 -10 13 5 7 55 -19 67 -19 67 2 0 13 -9 22 -26 26 -19 5 -24 11
-19 26 6 20 -25 60 -47 60 -7 0 -28 -9 -45 -20z m51 -29 c3 -5 -1 -14 -8 -20
-16 -13 -32 2 -21 19 8 12 22 13 29 1z"/>
<path d="M1515 2664 c-11 -3 -51 -12 -90 -21 -227 -53 -435 -188 -575 -375
-151 -200 -219 -420 -207 -671 12 -263 106 -483 286 -670 140 -145 287 -232
485 -284 91 -25 117 -27 261 -27 140 1 172 4 255 27 428 116 724 464 769 901
43 426 -206 861 -594 1037 -140 63 -225 81 -405 85 -91 1 -174 1 -185 -2z
m406 -57 c162 -42 325 -136 450 -258 261 -255 362 -654 253 -1001 -141 -447
-600 -752 -1051 -698 -349 42 -639 243 -794 551 -103 206 -132 472 -74 693 83
319 349 596 671 701 160 52 373 56 545 12z"/>
<path d="M1558 2553 c-26 -30 -59 -102 -64 -141 -3 -20 -7 -48 -9 -62 -2 -14
-4 -31 -4 -39 -1 -11 -4 -11 -16 -1 -28 24 -107 -26 -119 -76 -6 -21 -12 -24
-52 -24 -39 0 -51 -5 -75 -31 -34 -36 -38 -77 -13 -139 22 -54 69 -82 130 -79
46 3 46 3 73 -46 27 -49 42 -96 59 -186 l9 -47 -44 34 c-25 19 -48 34 -51 34
-4 0 -22 22 -41 50 -19 27 -61 75 -93 106 -52 50 -61 55 -74 42 -13 -13 -13
-20 0 -58 8 -25 14 -46 12 -47 -2 -2 -26 5 -53 16 -51 20 -68 21 -91 7 -32
-20 96 -167 158 -181 20 -4 40 -21 59 -48 47 -67 131 -142 206 -183 107 -58
128 -78 186 -172 55 -89 68 -125 42 -115 -11 4 -12 8 -3 13 9 6 9 10 -1 16 -8
5 -17 9 -21 10 -5 1 -9 2 -10 4 -4 2 -37 10 -63 15 -11 2 -20 4 -20 5 0 1 -22
4 -50 6 -93 7 -113 14 -197 69 -82 54 -111 65 -123 45 -9 -15 31 -76 65 -100
16 -11 43 -23 62 -27 18 -3 53 -19 77 -35 87 -58 159 -78 268 -74 l82 3 51
-63 c29 -35 89 -92 133 -125 97 -73 123 -87 138 -72 8 8 -9 24 -59 58 -55 36
-71 52 -74 73 -3 30 20 102 58 174 13 26 26 58 28 70 3 13 5 23 6 23 11 0 18
239 8 284 -6 31 -26 39 -34 14 -3 -10 -8 -25 -12 -33 -3 -8 -6 -17 -7 -20 0
-3 -18 -41 -39 -85 -67 -139 -77 -164 -82 -198 -9 -55 -10 -110 -3 -152 l7
-40 -38 44 c-51 58 -54 97 -18 204 30 87 36 119 44 236 5 70 8 77 46 120 48
54 67 96 72 154 2 23 11 60 21 82 21 47 25 139 7 157 -23 23 -42 -14 -56 -104
-10 -71 -18 -93 -45 -127 -46 -58 -65 -67 -79 -36 -7 14 -16 25 -21 25 -13 0
-28 -30 -26 -50 2 -26 -26 -73 -78 -130 -59 -66 -77 -104 -78 -167 l-1 -48
-23 50 c-33 67 -41 141 -23 212 14 58 14 58 49 55 41 -4 87 12 106 36 51 64
63 114 38 161 -29 57 -84 64 -146 19 -52 -38 -67 -75 -67 -153 1 -78 -11 -173
-22 -180 -4 -3 -13 30 -19 73 -12 79 -5 167 21 294 11 54 16 61 56 86 85 52
168 139 176 185 1 6 10 27 19 45 10 17 15 32 11 32 -4 0 -1 6 5 14 8 10 9 16
1 21 -5 3 -11 4 -11 1 -1 -3 -2 -9 -3 -13 -1 -5 -10 -23 -19 -40 -10 -18 -18
-36 -18 -40 -1 -5 -9 -24 -19 -43 -18 -34 -100 -122 -100 -107 0 4 -9 3 -20
-3 -30 -16 -25 -7 30 52 27 29 50 60 50 68 0 8 -24 -12 -54 -44 -29 -33 -55
-55 -59 -49 -11 17 44 111 106 181 32 37 72 87 89 112 35 52 30 27 -13 -67
-16 -33 -29 -64 -29 -68 0 -11 35 37 43 58 4 10 14 17 24 15 21 -4 53 75 58
140 5 77 -22 67 -79 -31 -20 -34 -63 -93 -96 -130 -53 -61 -60 -65 -64 -45
-14 68 -17 91 -22 173 -7 122 -13 135 -46 98z m28 -121 c1 -53 6 -107 11 -120
10 -25 5 -102 -6 -102 -9 0 -34 98 -31 120 4 28 0 93 -6 88 -6 -7 -6 -124 1
-183 6 -50 6 -108 -1 -114 -2 -3 -10 1 -16 7 -10 10 -10 17 0 32 10 16 9 27
-2 54 -8 19 -11 37 -8 41 4 4 -1 12 -11 20 -31 22 -13 137 38 235 9 17 19 29
23 25 4 -3 7 -50 8 -103z m259 54 c0 -14 -5 -22 -12 -19 -9 4 -10 10 -2 24 13
24 14 24 14 -5z m-371 -215 c39 -43 39 -150 0 -182 -12 -10 -15 -10 -12 2 2 8
-5 14 -17 14 -13 0 -20 -6 -19 -17 1 -14 -2 -16 -18 -7 -31 17 -65 113 -37
107 5 -2 21 16 34 38 17 31 20 45 12 53 -8 8 -4 11 14 11 14 0 34 -9 43 -19z
m-153 -91 c10 -6 19 -19 19 -29 0 -10 14 -38 31 -64 24 -36 28 -50 20 -64 -6
-10 -11 -12 -11 -5 0 18 -30 15 -37 -4 -3 -9 0 -20 8 -25 17 -10 -23 -12 -58
-3 -26 7 -81 82 -67 92 16 12 34 56 30 77 -5 32 27 45 65 25z m188 -257 c-13
-67 -24 -121 -25 -120 -1 1 -8 55 -14 119 l-12 118 28 33 29 33 8 -31 c6 -20
2 -68 -14 -152z m-71 37 l1 -35 -15 28 c-10 19 -13 39 -7 65 l7 37 7 -30 c4
-16 7 -46 7 -65z m568 12 c1 -17 -4 -29 -12 -29 -6 0 -10 6 -8 14 11 36 14 43
16 43 2 0 3 -13 4 -28z m-739 -113 c21 -24 45 -53 53 -63 14 -18 14 -19 -5 -9
-11 6 -37 28 -59 49 -34 33 -38 35 -32 13 3 -13 -3 -6 -14 16 -40 81 -15 79
57 -6z m413 56 c0 -2 -10 -9 -22 -15 -22 -11 -22 -10 -4 4 21 17 26 19 26 11z
m58 -4 c22 -14 31 -74 16 -109 -24 -59 -116 -95 -127 -51 -4 16 -11 20 -26 16
-22 -6 -27 14 -15 61 6 20 26 33 23 15 -4 -25 5 -21 43 18 24 24 42 47 40 52
-3 10 30 9 46 -2z m-448 -146 c100 -44 137 -65 114 -65 -6 0 -25 7 -43 16 -17
9 -40 17 -49 19 -9 2 -17 4 -17 5 0 1 -8 3 -18 5 -14 3 -16 1 -7 -10 7 -8 15
-14 18 -13 4 1 17 -3 28 -10 12 -6 24 -9 27 -6 3 3 8 0 13 -7 11 -19 -130 -3
-174 20 -47 24 -122 106 -122 133 0 9 85 -23 230 -87z m669 7 c-5 -2 -9 -10
-9 -17 0 -7 -39 -50 -87 -95 -92 -86 -66 -86 30 0 28 25 45 36 39 25 -13 -24
-65 -74 -112 -106 -19 -13 -42 -31 -51 -39 -9 -8 -25 -22 -35 -30 -11 -9 -29
-29 -42 -45 -15 -20 -20 -23 -16 -10 4 11 18 35 31 53 34 46 18 55 -19 12
l-31 -35 24 44 c13 24 53 69 88 100 35 31 92 84 125 118 50 52 62 60 67 45 3
-9 2 -18 -2 -20z m-158 -75 c-10 -9 -11 -8 -5 6 3 10 9 15 12 12 3 -3 0 -11
-7 -18z m-467 -71 c39 -39 56 -37 25 3 -19 24 -20 26 -3 30 10 2 24 -5 32 -15
7 -11 17 -18 22 -17 4 1 22 -26 40 -60 l33 -62 -29 25 c-16 14 -35 33 -42 43
-7 9 -18 15 -23 11 -6 -3 8 -24 30 -47 45 -45 47 -56 4 -34 -32 17 -143 130
-143 146 0 20 19 11 54 -23z m153 -19 c18 -27 51 -129 38 -116 -13 13 -85 136
-85 145 0 8 39 -16 47 -29z m359 -134 c-6 -63 -12 -87 -35 -156 -11 -31 -17
-57 -14 -57 3 0 0 -7 -7 -15 -6 -8 -8 -20 -4 -26 4 -8 3 -9 -4 -5 -15 9 -15
56 2 134 7 34 10 62 6 62 -8 0 -30 -114 -31 -161 -1 -28 -3 -24 -15 24 -8 32
-12 77 -9 100 2 23 4 50 4 60 1 9 7 17 15 17 8 0 16 11 18 25 5 39 23 25 21
-15 -2 -26 0 -31 7 -20 5 8 10 24 10 36 0 11 6 32 12 46 18 37 29 13 24 -49z
m191 29 c4 -45 3 -155 -1 -184 -6 -41 -15 -67 -55 -153 -67 -145 -61 -136 -58
-88 1 23 -1 39 -5 37 -5 -3 -8 -20 -8 -37 -1 -32 -1 -32 -14 -9 -16 29 -14
104 3 157 7 22 35 87 62 145 42 92 55 128 58 164 2 19 16 -7 18 -32z m-321
-151 l-1 -109 -27 46 c-25 43 -25 47 -12 86 13 36 35 86 39 86 1 0 1 -49 1
-109z m-380 -78 c21 -18 23 -21 7 -14 -28 14 -36 14 -27 0 3 -6 -8 -4 -24 5
-30 15 -62 51 -62 69 0 11 69 -28 106 -60z m214 -58 c14 -3 36 -8 50 -10 14
-2 34 -6 44 -8 28 -5 32 -27 5 -27 -31 0 -21 -7 19 -13 19 -3 36 -8 38 -10 8
-8 -78 -26 -93 -20 -13 5 -27 8 -73 12 -13 1 -13 2 0 11 12 8 12 10 -5 11 -17
1 -16 2 5 9 25 8 25 8 -4 9 -16 1 -46 6 -66 12 -31 10 -36 14 -27 26 12 13 46
13 107 -2z"/>
<path d="M1559 2505 c-4 -47 -4 -65 2 -65 11 0 17 48 8 62 -5 7 -9 9 -10 3z"/>
<path d="M1110 1811 c22 -19 77 -51 87 -51 1 0 3 4 3 10 0 5 -21 20 -47 32
-66 31 -72 33 -43 9z"/>
<path d="M2015 1463 c-4 -16 -9 -48 -12 -73 -2 -25 -13 -62 -24 -82 -10 -21
-16 -38 -13 -38 3 0 -3 -16 -15 -35 -11 -20 -16 -37 -10 -40 5 -4 12 2 15 12
3 10 12 32 21 50 8 17 15 33 14 35 0 2 6 26 15 53 15 52 29 145 21 145 -3 0
-8 -12 -12 -27z"/>
<path d="M1925 1159 c-4 -6 -5 -12 -2 -15 2 -3 7 2 10 11 7 17 1 20 -8 4z"/>
<path d="M1274 1291 c11 -11 23 -21 28 -21 14 0 -1 19 -25 31 -22 12 -22 12
-3 -10z"/>
<path d="M1710 2239 c0 -5 5 -7 10 -4 6 3 10 8 10 11 0 2 -4 4 -10 4 -5 0 -10
-5 -10 -11z"/>
<path d="M2487 2542 c-26 -26 -47 -53 -47 -59 0 -20 52 -55 64 -43 7 7 7 16
-1 29 -10 16 -6 24 28 57 21 21 39 44 39 51 0 27 -37 11 -83 -35z"/>
<path d="M670 2525 c0 -8 16 -30 37 -48 25 -23 34 -39 30 -50 -9 -24 -20 -21
-67 18 -40 34 -60 37 -60 11 0 -14 45 -59 77 -75 31 -16 50 -14 73 9 32 32 25
68 -20 112 -42 39 -70 49 -70 23z"/>
<path d="M491 2296 c-12 -18 -21 -41 -21 -50 0 -18 26 -22 32 -4 3 8 20 3 52
-15 27 -15 55 -27 63 -27 28 0 7 34 -37 60 -35 20 -44 32 -42 48 5 34 -23 27
-47 -12z"/>
<path d="M2740 1300 c-34 -34 -25 -81 17 -94 18 -6 29 0 52 24 18 20 31 28 35
21 9 -14 -1 -31 -20 -31 -16 0 -19 -26 -4 -35 6 -4 22 1 35 9 46 30 28 106
-25 106 -6 0 -24 -15 -41 -32 -21 -24 -29 -28 -29 -16 0 9 7 21 17 26 10 6 14
16 10 26 -8 21 -23 20 -47 -4z"/>
<path d="M447 1303 c-9 -2 -24 -18 -33 -34 -30 -58 6 -119 69 -119 64 0 96 46
76 107 -14 45 -54 61 -112 46z m77 -55 c14 -23 -3 -52 -33 -56 -42 -6 -67 38
-39 66 17 17 58 11 72 -10z"/>
<path d="M2640 1088 c-11 -18 -20 -38 -20 -43 0 -15 118 -78 135 -71 8 3 21
19 30 36 14 28 14 31 -1 37 -10 4 -22 0 -29 -10 -16 -23 -39 -22 -30 1 11 30
10 36 -7 39 -10 3 -19 -4 -23 -17 -10 -30 -27 -13 -20 20 9 41 -12 46 -35 8z"/>
<path d="M563 1044 c-53 -35 -69 -64 -35 -64 10 0 23 5 30 12 16 16 15 -1 -2
-31 -8 -14 -12 -31 -9 -38 8 -21 29 -15 41 12 9 19 19 25 42 25 44 0 58 35 35
84 -10 21 -24 36 -34 35 -9 0 -40 -16 -68 -35z m72 -24 c11 -17 -5 -32 -21
-19 -7 6 -11 15 -8 20 7 12 21 11 29 -1z"/>
<path d="M2545 937 c-4 -8 3 -33 15 -56 22 -45 19 -48 -31 -27 -37 15 -59 12
-59 -8 0 -17 143 -66 161 -56 11 7 8 20 -16 70 -34 72 -61 101 -70 77z"/>
<path d="M722 870 c-45 -19 -60 -101 -23 -134 38 -34 120 -22 113 17 -2 10 3
16 10 15 23 -5 21 48 -4 75 -27 30 -63 40 -96 27z m66 -42 c7 -7 12 -21 12
-32 0 -18 -1 -18 -18 -3 -22 20 -42 22 -42 5 0 -6 7 -20 17 -30 14 -16 14 -18
0 -18 -16 0 -47 25 -47 38 0 4 7 18 16 30 17 24 43 29 62 10z"/>
<path d="M2360 749 c0 -20 84 -118 99 -116 27 4 21 24 -20 75 -39 48 -79 68
-79 41z"/>
<path d="M921 654 c-49 -35 -60 -48 -51 -59 6 -7 20 -11 30 -8 25 7 50 -13 50
-38 0 -37 29 -20 40 24 6 23 15 56 20 74 7 29 -2 53 -20 53 -3 0 -34 -21 -69
-46z m41 -36 c-7 -7 -12 -8 -12 -2 0 14 12 26 19 19 2 -3 -1 -11 -7 -17z"/>
<path d="M2200 639 c0 -19 61 -120 76 -126 19 -7 64 23 64 43 0 12 -7 14 -28
10 -24 -6 -30 -2 -52 39 -15 27 -32 45 -42 45 -10 0 -18 -5 -18 -11z"/>
<path d="M1126 535 c-31 -77 -32 -85 -8 -85 12 0 23 13 32 38 l14 37 11 -55
c15 -79 36 -78 69 5 31 77 32 85 8 85 -11 0 -23 -13 -31 -32 l-13 -33 -12 50
c-17 74 -37 71 -70 -10z"/>
<path d="M1995 545 c-31 -30 -32 -73 -4 -109 45 -57 139 -19 139 56 0 39 -40
78 -80 78 -19 0 -40 -9 -55 -25z m83 -27 c31 -31 -3 -87 -42 -72 -18 7 -31 47
-22 69 7 18 47 20 64 3z"/>
<path d="M1385 508 c-5 -18 -25 -117 -25 -128 0 -6 8 -10 18 -10 15 0 21 13
30 64 7 35 12 68 12 75 0 15 -30 14 -35 -1z"/>
<path d="M1561 483 c-12 -10 -24 -35 -27 -55 -5 -30 -2 -41 19 -62 41 -41 127
-31 127 14 0 24 -13 25 -44 5 -29 -19 -54 -10 -62 22 -8 31 24 67 49 57 9 -3
17 -10 17 -15 0 -5 9 -9 20 -9 12 0 20 7 20 16 0 41 -80 59 -119 27z"/>
</g>
</svg>
